{
  "accessors": [
    {
      "bufferView": 2,
      "componentType": 5126,
      "count": 26911,
      "max": [
        3.7965145111083984,
        1.0280237197875977,
        1.473149299621582
      ],
      "min": [
        -3.7965145111083984,
        -0.8828290700912476,
        -1.3039724826812744
      ],
      "type": "VEC3"
    },
    {
      "bufferView": 2,
      "byteOffset": 322932,
      "componentType": 5126,
      "count": 26911,
      "max": [
        1.0,
        1.0,
        1.0
      ],
      "min": [
        -1.0,
        -1.0,
        -1.0
      ],
      "type": "VEC3"
    },
    {
      "bufferView": 3,
      "componentType": 5126,
      "count": 26911,
      "max": [
        1.0,
        1.0,
        1.0,
        1.0
      ],
      "min": [
        -1.0,
        -1.0,
        -1.0,
        -1.0
      ],
      "type": "VEC4"
    },
    {
      "bufferView": 1,
      "componentType": 5126,
      "count": 26911,
      "max": [
        0.9760888814926147,
        0.9806509017944336
      ],
      "min": [
        0.0,
        0.0
      ],
      "type": "VEC2"
    },
    {
      "bufferView": 1,
      "byteOffset": 215288,
      "componentType": 5126,
      "count": 26911,
      "max": [
        0.9977831840515137,
        0.9977833032608032
      ],
      "min": [
        0.0022092964500188828,
        0.002209546510130167
      ],
      "type": "VEC2"
    },
    {
      "bufferView": 0,
      "componentType": 5125,
      "count": 62796,
      "type": "SCALAR"
    },
    {
      "bufferView": 2,
      "byteOffset": 645864,
      "componentType": 5126,
      "count": 3065,
      "max": [
        0.5978074669837952,
        0.4212503433227539,
        -0.7504681944847107
      ],
      "min": [
        -0.5978075265884399,
        -0.7539803981781006,
        -1.011857271194458
      ],
      "type": "VEC3"
    },
    {
      "bufferView": 2,
      "byteOffset": 682644,
      "componentType": 5126,
      "count": 3065,
      "max": [
        1.0,
        1.0,
        1.0
      ],
      "min": [
        -1.0,
        -1.0,
        -1.0
      ],
      "type": "VEC3"
    },
    {
      "bufferView": 3,
      "byteOffset": 430576,
      "componentType": 5126,
      "count": 3065,
      "max": [
        1.0,
        1.0,
        1.0,
        1.0
      ],
      "min": [
        -1.0,
        -1.0,
        -1.0,
        1.0
      ],
      "type": "VEC4"
    },
    {
      "bufferView": 1,
      "byteOffset": 430576,
      "componentType": 5126,
      "count": 3065,
      "max": [
        0.9855995774269104,
        0.9968803524971008
      ],
      "min": [
        0.0022142762318253517,
        0.0023823194205760956
      ],
      "type": "VEC2"
    },
    {
      "bufferView": 1,
      "byteOffset": 455096,
      "componentType": 5126,
      "count": 3065,
      "max": [
        0.9998913407325745,
        0.9998671412467957
      ],
      "min": [
        0.0001086506963474676,
        0.0001086506963474676
      ],
      "type": "VEC2"
    },
    {
      "bufferView": 0,
      "byteOffset": 251184,
      "componentType": 5125,
      "count": 10398,
      "type": "SCALAR"
    }
  ],
  "asset": {
    "extras": {
      "author": "tashtego (https://sketchfab.com/tashtego)",
      "license": "CC-BY-NC-4.0 (http://creativecommons.org/licenses/by-nc/4.0/)",
      "source": "https://sketchfab.com/3d-models/spektr-rg-97f9ed4cee41407ba7c0073720e1c8c8",
      "title": "Spektr-RG"
    },
    "generator": "Sketchfab-12.71.0",
    "version": "2.0"
  },
  "bufferViews": [
    {
      "buffer": 0,
      "byteLength": 292776,
      "name": "floatBufferViews",
      "target": 34963
    },
    {
      "buffer": 0,
      "byteLength": 479616,
      "byteOffset": 292776,
      "byteStride": 8,
      "name": "floatBufferViews",
      "target": 34962
    },
    {
      "buffer": 0,
      "byteLength": 719424,
      "byteOffset": 772392,
      "byteStride": 12,
      "name": "floatBufferViews",
      "target": 34962
    },
    {
      "buffer": 0,
      "byteLength": 479616,
      "byteOffset": 1491816,
      "byteStride": 16,
      "name": "floatBufferViews",
      "target": 34962
    }
  ],
  "buffers": [
    {
      "byteLength": 1971432,
      "uri": "scene.bin"
    }
  ],
  "images": [
    {
      "uri": "textures/SpectrRG_Color_baseColor.png"
    },
    {
      "uri": "textures/SpectrRG_Color_metallicRoughness.png"
    },
    {
      "uri": "textures/SpectrRG_Color_normal.png"
    },
    {
      "uri": "textures/SpectrRG_GoldFoil_metallicRoughness.png"
    },
    {
      "uri": "textures/SpectrRG_GoldFoil_normal.png"
    }
  ],
  "materials": [
    {
      "name": "SpectrRG_Color",
      "normalTexture": {
        "index": 2
      },
      "occlusionTexture": {
        "index": 1
      },
      "pbrMetallicRoughness": {
        "baseColorTexture": {
          "index": 0
        },
        "metallicRoughnessTexture": {
          "index": 1
        },
        "roughnessFactor": 0.38843368902439024
      }
    },
    {
      "doubleSided": true,
      "name": "SpectrRG_GoldFoil",
      "normalTexture": {
        "index": 4
      },
      "occlusionTexture": {
        "index": 3
      },
      "pbrMetallicRoughness": {
        "baseColorFactor": [
          0.492792,
          0.206118,
          0.0,
          1.0
        ],
        "metallicRoughnessTexture": {
          "index": 3
        },
        "roughnessFactor": 0.05916539634146345
      }
    }
  ],
  "meshes": [
    {
      "name": "SpectrRG_SpectrRG_Color_0",
      "primitives": [
        {
          "attributes": {
            "NORMAL": 1,
            "POSITION": 0,
            "TANGENT": 2,
            "TEXCOORD_0": 3,
            "TEXCOORD_1": 4
          },
          "indices": 5,
          "material": 0,
          "mode": 4
        }
      ]
    },
    {
      "name": "SpectrRG_SpectrRG_GoldFoil_0",
      "primitives": [
        {
          "attributes": {
            "NORMAL": 7,
            "POSITION": 6,
            "TANGENT": 8,
            "TEXCOORD_0": 9,
            "TEXCOORD_1": 10
          },
          "indices": 11,
          "material": 1,
          "mode": 4
        }
      ]
    }
  ],
  "nodes": [
    {
      "children": [
        1
      ],
      "matrix": [
        1.0,
        0.0,
        0.0,
        0.0,
        0.0,
        2.220446049250313e-16,
        -1.0,
        0.0,
        0.0,
        1.0,
        2.220446049250313e-16,
        0.0,
        0.0,
        0.0,
        0.0,
        1.0
      ],
      "name": "Sketchfab_model"
    },
    {
      "children": [
        2
      ],
      "matrix": [
        1.0,
        0.0,
        0.0,
        0.0,
        0.0,
        0.0,
        1.0,
        0.0,
        0.0,
        -1.0,
        0.0,
        0.0,
        0.0,
        0.0,
        0.0,
        1.0
      ],
      "name": "b0223f19f2394b00a06a940600646287.fbx"
    },
    {
      "children": [
        3
      ],
      "name": "RootNode"
    },
    {
      "children": [
        4,
        5
      ],
      "name": "SpectrRG"
    },
    {
      "mesh": 0,
      "name": "SpectrRG_SpectrRG_Color_0"
    },
    {
      "mesh": 1,
      "name": "SpectrRG_SpectrRG_GoldFoil_0"
    }
  ],
  "samplers": [
    {
      "magFilter": 9729,
      "minFilter": 9987,
      "wrapS": 10497,
      "wrapT": 10497
    }
  ],
  "scene": 0,
  "scenes": [
    {
      "name": "Sketchfab_Scene",
      "nodes": [
        0
      ]
    }
  ],
  "textures": [
    {
      "sampler": 0,
      "source": 0
    },
    {
      "sampler": 0,
      "source": 1
    },
    {
      "sampler": 0,
      "source": 2
    },
    {
      "sampler": 0,
      "source": 3
    },
    {
      "sampler": 0,
      "source": 4
    }
  ]
}
